<svg xmlns="http://www.w3.org/2000/svg"  viewBox="0 0 50 50" width="50px" height="50px"><path d="M 14.988281 3.9902344 A 1.0001 1.0001 0 0 0 14.291016 5.7089844 L 20.585938 12.003906 L 9.9726562 12.003906 C 6.6852627 12.003906 3.9941406 14.69203 3.9941406 17.980469 L 3.9941406 37.023438 C 3.9941406 40.310831 6.6842171 43.001953 9.9726562 43.001953 L 13 43.001953 L 13 44.001953 C 13 45.105953 13.897953 46.002953 15.001953 46.001953 C 16.104953 46.001953 17.001953 45.105953 17.001953 44.001953 L 17.001953 43.001953 L 32.988281 43.001953 L 32.988281 44.001953 C 32.988281 45.105953 33.885281 46.001953 34.988281 46.001953 C 36.092281 46.002953 36.988281 45.105953 36.988281 44.001953 L 36.988281 43.001953 L 40.015625 43.001953 C 43.303019 43.001953 45.992187 40.311876 45.992188 37.023438 L 45.992188 17.980469 C 45.992188 14.692272 43.303821 12.003906 40.015625 12.003906 L 29.414062 12.003906 L 35.708984 5.7089844 A 1.001274 1.001274 0 1 0 34.292969 4.2929688 L 26.582031 12.003906 L 23.417969 12.003906 L 15.707031 4.2929688 A 1.0001 1.0001 0 0 0 14.988281 3.9902344 z M 9.9726562 14.003906 L 22.896484 14.003906 A 1.0001 1.0001 0 0 0 23.121094 14.003906 L 26.886719 14.003906 A 1.0001 1.0001 0 0 0 27.095703 14.003906 L 40.015625 14.003906 C 42.221429 14.003906 43.992188 15.774665 43.992188 17.980469 L 43.992188 37.023438 C 43.992188 39.228997 42.220231 41.001953 40.015625 41.001953 L 9.9726562 41.001953 C 7.7670954 41.001953 5.9941406 39.228043 5.9941406 37.023438 L 5.9941406 17.980469 C 5.9941406 15.774908 7.7680498 14.003906 9.9726562 14.003906 z M 20.048828 21.996094 A 1.0001 1.0001 0 0 0 19.685547 22.052734 L 13.685547 24.052734 A 1.0001 1.0001 0 1 0 14.316406 25.949219 L 20.316406 23.949219 A 1.0001 1.0001 0 0 0 20.048828 21.996094 z M 30.019531 21.996094 A 1.0001 1.0001 0 0 0 29.917969 21.998047 A 1.0001 1.0001 0 0 0 29.679688 23.949219 L 35.679688 25.949219 A 1.0001 1.0001 0 1 0 36.3125 24.052734 L 30.3125 22.052734 A 1.0001 1.0001 0 0 0 30.019531 21.996094 z M 30.953125 29.976562 A 1.0001 1.0001 0 0 0 30.033203 30.757812 C 29.884737 31.352197 29.092247 32.001953 27.994141 32.001953 C 26.905547 32.001953 26.119463 31.363968 25.962891 30.777344 A 1.0001 1.0001 0 0 0 24.029297 30.777344 C 23.871274 31.365484 23.082168 32.001953 21.996094 32.001953 C 20.896728 32.001953 20.10745 31.352196 19.958984 30.757812 A 1.0001 1.0001 0 0 0 18.923828 29.988281 A 1.0001 1.0001 0 0 0 18.017578 31.244141 C 18.39227 32.744224 19.818976 33.629517 21.433594 33.835938 A 1.0001 1.0001 0 0 0 21.996094 34.001953 A 1.0001 1.0001 0 0 0 22.556641 33.839844 C 23.55704 33.712852 24.359997 33.27658 24.996094 32.605469 C 25.759502 33.410345 26.75756 34.001953 27.994141 34.001953 C 29.864035 34.001953 31.551122 32.931757 31.972656 31.244141 A 1.0001 1.0001 0 0 0 30.953125 29.976562 z"/></svg>